<svg xmlns="http://www.w3.org/2000/svg" viewBox="0 0 24 24" width="24" height="24">
  <g fill="none" stroke="#38bdf8" stroke-width="2" stroke-linecap="round" stroke-linejoin="round">
    <polygon points="22,12 17,3.34 7,3.34 2,12 7,20.66 17,20.66"/>
    <line x1="22" y1="12" x2="17" y2="3.34"/>
    <line x1="17" y1="3.34" x2="7" y2="3.34"/>
    <line x1="7" y1="3.34" x2="2" y2="12"/>
    <line x1="2" y1="12" x2="7" y2="20.66"/>
    <line x1="7" y1="20.66" x2="17" y2="20.66"/>
    <line x1="17" y1="20.66" x2="22" y2="12"/>
    <line x1="22" y1="12" x2="2" y2="12" opacity="0.6"/>
    <line x1="17" y1="3.34" x2="7" y2="20.66" opacity="0.6"/>
    <line x1="7" y1="3.34" x2="17" y2="20.66" opacity="0.6"/>
  </g>
  <g fill="#38bdf8">
    <circle cx="22" cy="12" r="1.7"/>
    <circle cx="17" cy="3.34" r="1.7"/>
    <circle cx="7" cy="3.34" r="1.7"/>
    <circle cx="2" cy="12" r="1.7"/>
    <circle cx="7" cy="20.66" r="1.7"/>
    <circle cx="17" cy="20.66" r="1.7"/>
  </g>
</svg>
